<svg width="37" height="30" viewBox="0 0 37 30" fill="none" xmlns="http://www.w3.org/2000/svg">
<path d="M36.7149 10.6474C36.5153 10.2869 36.2225 9.9865 35.8672 9.77766C35.5119 9.56881 35.107 9.45914 34.6949 9.46009H12.777C12.038 9.46024 11.319 9.70004 10.728 10.1435C10.1369 10.587 9.70553 11.2102 9.49869 11.9196L5.16029 26.7921C4.93193 27.575 4.45582 28.2627 3.80342 28.7521C3.15102 29.2414 2.35751 29.506 1.54199 29.506H29.1036C29.9192 29.506 30.7129 29.2415 31.3654 28.7522C32.0179 28.2628 32.4942 27.5751 32.7227 26.7921L36.8876 12.5132C36.9844 12.2064 37.019 11.8834 36.9895 11.563C36.96 11.2427 36.8661 10.9314 36.7149 10.6474Z" fill="white"/>
<path d="M3.67766 26.3604L8.01838 11.4878C8.32078 10.4596 8.94724 9.55669 9.80445 8.91344C10.6617 8.27019 11.7037 7.92107 12.7754 7.91809H32.3819V7.1471C32.3819 6.32917 32.057 5.54474 31.4786 4.96638C30.9003 4.38802 30.1158 4.0631 29.2979 4.0631H17.5448C17.315 4.06315 17.0881 4.01197 16.8806 3.91327C16.6731 3.81458 16.4901 3.67086 16.3452 3.49257L14.8294 1.62906C14.4684 1.18518 14.013 0.827321 13.4963 0.581523C12.9796 0.335726 12.4147 0.208164 11.8425 0.208115H3.08399C2.26607 0.208115 1.48164 0.533034 0.90328 1.11139C0.32492 1.68976 0 2.47418 0 3.29211L0 26.422C0 26.831 0.16246 27.2232 0.45164 27.5124C0.74082 27.8016 1.13303 27.964 1.542 27.964C2.02329 27.9627 2.49127 27.8059 2.87615 27.5169C3.26102 27.2279 3.54217 26.8222 3.67766 26.3604Z" fill="white"/>
</svg>
