<svg width="256" height="256" viewBox="0 0 256 256" fill="none" xmlns="http://www.w3.org/2000/svg">
<path d="M213.715 128.853L176.149 95.7509H78.5803L41.0138 128.853L35.84 122.027L75.6105 88.1786H179.118L220.16 122.027L213.715 128.853Z" fill="#A3A3A3"/>
<path d="M208.64 190.173H47.36C41.0067 190.173 35.84 184.994 35.84 178.626V122.027H97.28V126.667C97.28 136.218 105.031 143.987 114.56 143.987H141.44C150.969 143.987 158.72 136.218 158.72 126.667V122.027H220.16V178.626C220.16 184.994 214.993 190.173 208.64 190.173ZM43.52 130.516V178.626C43.52 180.749 45.2422 182.475 47.36 182.475H208.64C210.758 182.475 212.48 180.749 212.48 178.626V130.516H166.106C164.253 142.491 153.897 151.684 141.44 151.684H114.56C102.103 151.684 91.7465 142.491 89.8937 130.516H43.52Z" fill="#A3A3A3"/>
<path d="M102.3 54.0054L92.9791 39.3248C91.8416 37.5331 89.4689 37.0059 87.6796 38.1471C85.8903 39.2884 85.362 41.666 86.4995 43.4577L95.8203 58.1383C96.9579 59.93 99.3305 60.4572 101.12 59.316C102.909 58.1747 103.437 55.7971 102.3 54.0054Z" fill="#A3A3A3"/>
<path d="M162.103 58.1314L171.422 43.4508C172.559 41.6591 172.03 39.2817 170.241 38.1406C168.452 36.9996 166.079 37.527 164.942 39.3187L155.623 53.9993C154.486 55.791 155.014 58.1684 156.803 59.3095C158.593 60.4505 160.965 59.9231 162.103 58.1314Z" fill="#A3A3A3"/>
<path d="M131.84 53.5481V36.2107C131.84 34.09 130.121 32.3707 128 32.3707C125.879 32.3707 124.16 34.09 124.16 36.2107V53.5481C124.16 55.6689 125.879 57.3881 128 57.3881C130.121 57.3881 131.84 55.6689 131.84 53.5481Z" fill="#A3A3A3"/>
<path d="M53.159 201.098V220.046H50.9386L40.6138 205.169H40.4288V220.046H38.1344V201.098H40.3548L50.7166 216.012H50.9016V201.098H53.159ZM63.227 220.342C61.9441 220.342 60.8185 220.036 59.8502 219.426C58.888 218.815 58.1356 217.961 57.5928 216.863C57.0562 215.765 56.7879 214.482 56.7879 213.014C56.7879 211.534 57.0562 210.242 57.5928 209.138C58.1356 208.034 58.888 207.177 59.8502 206.566C60.8185 205.955 61.9441 205.65 63.227 205.65C64.5099 205.65 65.6325 205.955 66.5946 206.566C67.563 207.177 68.3154 208.034 68.852 209.138C69.3948 210.242 69.6662 211.534 69.6662 213.014C69.6662 214.482 69.3948 215.765 68.852 216.863C68.3154 217.961 67.563 218.815 66.5946 219.426C65.6325 220.036 64.5099 220.342 63.227 220.342ZM63.227 218.38C64.2015 218.38 65.0033 218.13 65.6325 217.631C66.2616 217.131 66.7272 216.474 67.0294 215.66C67.3317 214.846 67.4828 213.964 67.4828 213.014C67.4828 212.064 67.3317 211.179 67.0294 210.359C66.7272 209.539 66.2616 208.876 65.6325 208.37C65.0033 207.864 64.2015 207.611 63.227 207.611C62.2525 207.611 61.4507 207.864 60.8216 208.37C60.1925 208.876 59.7268 209.539 59.4246 210.359C59.1224 211.179 58.9713 212.064 58.9713 213.014C58.9713 213.964 59.1224 214.846 59.4246 215.66C59.7268 216.474 60.1925 217.131 60.8216 217.631C61.4507 218.13 62.2525 218.38 63.227 218.38ZM86.4694 220.046H80.6224V201.098H86.7284C88.5664 201.098 90.1392 201.478 91.4468 202.236C92.7543 202.989 93.7566 204.071 94.4535 205.484C95.1505 206.89 95.499 208.574 95.499 210.535C95.499 212.509 95.1474 214.208 94.4443 215.633C93.7412 217.051 92.7173 218.143 91.3727 218.908C90.0282 219.666 88.3937 220.046 86.4694 220.046ZM82.9168 218.01H86.3214C87.888 218.01 89.1863 217.708 90.2163 217.104C91.2463 216.499 92.0142 215.639 92.5199 214.522C93.0257 213.406 93.2786 212.077 93.2786 210.535C93.2786 209.005 93.0288 207.688 92.5292 206.584C92.0296 205.474 91.2833 204.623 90.2903 204.031C89.2973 203.433 88.0607 203.134 86.5804 203.134H82.9168V218.01ZM103.233 220.379C102.333 220.379 101.516 220.209 100.782 219.87C100.048 219.524 99.4648 219.028 99.0331 218.38C98.6013 217.726 98.3855 216.937 98.3855 216.012C98.3855 215.198 98.5458 214.538 98.8665 214.032C99.1873 213.52 99.6159 213.119 100.153 212.829C100.689 212.539 101.281 212.324 101.929 212.182C102.583 212.034 103.239 211.916 103.899 211.83C104.763 211.719 105.463 211.636 106 211.58C106.542 211.519 106.937 211.417 107.184 211.275C107.437 211.133 107.563 210.886 107.563 210.535V210.461C107.563 209.548 107.313 208.839 106.814 208.333C106.32 207.827 105.571 207.574 104.566 207.574C103.523 207.574 102.706 207.803 102.114 208.259C101.522 208.715 101.105 209.203 100.865 209.721L98.7925 208.981C99.1626 208.117 99.656 207.445 100.273 206.964C100.896 206.477 101.574 206.137 102.308 205.946C103.048 205.749 103.776 205.65 104.492 205.65C104.948 205.65 105.472 205.706 106.064 205.817C106.663 205.921 107.239 206.14 107.794 206.473C108.356 206.806 108.821 207.309 109.191 207.981C109.561 208.654 109.746 209.554 109.746 210.683V220.046H107.563V218.121H107.452C107.304 218.43 107.057 218.76 106.712 219.111C106.367 219.463 105.907 219.762 105.333 220.009C104.76 220.255 104.06 220.379 103.233 220.379ZM103.566 218.417C104.43 218.417 105.158 218.248 105.75 217.908C106.348 217.569 106.798 217.131 107.1 216.595C107.409 216.058 107.563 215.494 107.563 214.902V212.903C107.471 213.014 107.267 213.116 106.952 213.209C106.644 213.295 106.286 213.372 105.879 213.44C105.478 213.502 105.087 213.557 104.704 213.606C104.328 213.65 104.023 213.687 103.788 213.717C103.221 213.791 102.691 213.912 102.197 214.078C101.71 214.239 101.315 214.482 101.013 214.809C100.717 215.13 100.569 215.568 100.569 216.123C100.569 216.881 100.849 217.455 101.411 217.844C101.978 218.226 102.697 218.417 103.566 218.417ZM119.912 205.835V207.685H112.547V205.835H119.912ZM114.694 202.43H116.877V215.975C116.877 216.592 116.967 217.054 117.145 217.363C117.33 217.665 117.565 217.868 117.849 217.973C118.138 218.072 118.444 218.121 118.764 218.121C119.005 218.121 119.202 218.109 119.357 218.084C119.511 218.053 119.634 218.029 119.727 218.01L120.171 219.972C120.023 220.027 119.816 220.083 119.551 220.138C119.286 220.2 118.949 220.231 118.542 220.231C117.926 220.231 117.321 220.098 116.729 219.833C116.143 219.568 115.656 219.164 115.267 218.621C114.885 218.078 114.694 217.393 114.694 216.567V202.43ZM127.378 220.379C126.477 220.379 125.66 220.209 124.926 219.87C124.192 219.524 123.609 219.028 123.177 218.38C122.746 217.726 122.53 216.937 122.53 216.012C122.53 215.198 122.69 214.538 123.011 214.032C123.332 213.52 123.76 213.119 124.297 212.829C124.833 212.539 125.426 212.324 126.073 212.182C126.727 212.034 127.384 211.916 128.044 211.83C128.907 211.719 129.607 211.636 130.144 211.58C130.687 211.519 131.081 211.417 131.328 211.275C131.581 211.133 131.707 210.886 131.707 210.535V210.461C131.707 209.548 131.458 208.839 130.958 208.333C130.465 207.827 129.715 207.574 128.71 207.574C127.668 207.574 126.85 207.803 126.258 208.259C125.666 208.715 125.25 209.203 125.009 209.721L122.937 208.981C123.307 208.117 123.8 207.445 124.417 206.964C125.04 206.477 125.719 206.137 126.453 205.946C127.193 205.749 127.92 205.65 128.636 205.65C129.092 205.65 129.617 205.706 130.209 205.817C130.807 205.921 131.384 206.14 131.939 206.473C132.5 206.806 132.966 207.309 133.336 207.981C133.706 208.654 133.891 209.554 133.891 210.683V220.046H131.707V218.121H131.596C131.448 218.43 131.202 218.76 130.856 219.111C130.511 219.463 130.051 219.762 129.478 220.009C128.904 220.255 128.204 220.379 127.378 220.379ZM127.711 218.417C128.574 218.417 129.302 218.248 129.894 217.908C130.492 217.569 130.943 217.131 131.245 216.595C131.553 216.058 131.707 215.494 131.707 214.902V212.903C131.615 213.014 131.411 213.116 131.097 213.209C130.788 213.295 130.431 213.372 130.024 213.44C129.623 213.502 129.231 213.557 128.849 213.606C128.472 213.65 128.167 213.687 127.933 213.717C127.365 213.791 126.835 213.912 126.342 214.078C125.854 214.239 125.46 214.482 125.157 214.809C124.861 215.13 124.713 215.568 124.713 216.123C124.713 216.881 124.994 217.455 125.555 217.844C126.123 218.226 126.841 218.417 127.711 218.417ZM145.499 220.046V201.098H156.86V203.134H147.794V209.536H156.009V211.571H147.794V220.046H145.499ZM165.224 220.342C163.941 220.342 162.815 220.036 161.847 219.426C160.885 218.815 160.132 217.961 159.589 216.863C159.053 215.765 158.785 214.482 158.785 213.014C158.785 211.534 159.053 210.242 159.589 209.138C160.132 208.034 160.885 207.177 161.847 206.566C162.815 205.955 163.941 205.65 165.224 205.65C166.507 205.65 167.629 205.955 168.591 206.566C169.56 207.177 170.312 208.034 170.849 209.138C171.391 210.242 171.663 211.534 171.663 213.014C171.663 214.482 171.391 215.765 170.849 216.863C170.312 217.961 169.56 218.815 168.591 219.426C167.629 220.036 166.507 220.342 165.224 220.342ZM165.224 218.38C166.198 218.38 167 218.13 167.629 217.631C168.258 217.131 168.724 216.474 169.026 215.66C169.328 214.846 169.479 213.964 169.479 213.014C169.479 212.064 169.328 211.179 169.026 210.359C168.724 209.539 168.258 208.876 167.629 208.37C167 207.864 166.198 207.611 165.224 207.611C164.249 207.611 163.447 207.864 162.818 208.37C162.189 208.876 161.724 209.539 161.421 210.359C161.119 211.179 160.968 212.064 160.968 213.014C160.968 213.964 161.119 214.846 161.421 215.66C161.724 216.474 162.189 217.131 162.818 217.631C163.447 218.13 164.249 218.38 165.224 218.38ZM183.951 214.236V205.835H186.135V220.046H183.951V217.64H183.803C183.47 218.362 182.952 218.975 182.249 219.481C181.546 219.981 180.658 220.231 179.585 220.231C178.696 220.231 177.907 220.036 177.216 219.648C176.525 219.253 175.983 218.661 175.588 217.871C175.193 217.076 174.996 216.074 174.996 214.865V205.835H177.179V214.717C177.179 215.753 177.469 216.579 178.049 217.196C178.635 217.813 179.381 218.121 180.288 218.121C180.83 218.121 181.382 217.982 181.944 217.705C182.511 217.427 182.986 217.002 183.368 216.428C183.757 215.855 183.951 215.124 183.951 214.236ZM192.317 211.497V220.046H190.134V205.835H192.243V208.055H192.428C192.761 207.334 193.267 206.754 193.945 206.316C194.624 205.872 195.5 205.65 196.573 205.65C197.535 205.65 198.377 205.847 199.098 206.242C199.82 206.631 200.381 207.223 200.782 208.018C201.183 208.808 201.384 209.807 201.384 211.016V220.046H199.2V211.164C199.2 210.048 198.91 209.178 198.331 208.555C197.751 207.926 196.955 207.611 195.944 207.611C195.247 207.611 194.624 207.762 194.075 208.065C193.532 208.367 193.103 208.808 192.789 209.388C192.474 209.967 192.317 210.671 192.317 211.497ZM210.739 220.342C209.555 220.342 208.51 220.042 207.603 219.444C206.696 218.84 205.987 217.989 205.475 216.891C204.963 215.787 204.707 214.482 204.707 212.977C204.707 211.485 204.963 210.189 205.475 209.092C205.987 207.994 206.699 207.146 207.612 206.547C208.525 205.949 209.58 205.65 210.776 205.65C211.701 205.65 212.432 205.804 212.969 206.113C213.512 206.415 213.925 206.76 214.209 207.149C214.499 207.531 214.724 207.846 214.884 208.092H215.069V201.098H217.252V220.046H215.143V217.862H214.884C214.724 218.121 214.495 218.448 214.199 218.843C213.903 219.231 213.481 219.58 212.932 219.888C212.383 220.19 211.652 220.342 210.739 220.342ZM211.035 218.38C211.911 218.38 212.651 218.152 213.256 217.696C213.86 217.233 214.32 216.595 214.634 215.781C214.949 214.96 215.106 214.013 215.106 212.94C215.106 211.879 214.952 210.951 214.643 210.156C214.335 209.354 213.879 208.731 213.274 208.287C212.67 207.836 211.924 207.611 211.035 207.611C210.11 207.611 209.339 207.849 208.722 208.324C208.112 208.792 207.652 209.431 207.344 210.239C207.042 211.041 206.891 211.941 206.891 212.94C206.891 213.952 207.045 214.871 207.353 215.697C207.668 216.518 208.13 217.171 208.741 217.659C209.358 218.14 210.123 218.38 211.035 218.38Z" fill="#A3A3A3"/>
</svg>
